PathFileType  4	(X/Y/Z) C:\Users\antoi\Documents\MyRepositories\mobilecap\ResultsAnalysis
DataRate	CameraRate	NumFrames	NumMarkers	Units	OrigDataRate	OrigDataStartFrame	OrigNumFrames
100.0	100.0	5	51	mm	100.0	88	232
Frame#	Time	r_knee			r_shank_antsup			r_ankle			r_calc			r_5meta			r_toe			L_knee			L_shank_antsup			L_ankle			L_calc			L_5meta			L_toe			r_sh2			r_sh3			r_sh4			L_sh2			L_sh3			r_thigh1			r_thigh2			r_thigh3			r_thigh4			r_thigh5			L_thigh1			L_thigh2			L_thigh3			L_thigh4			r.ASIS			r.PSIS			L.ASIS			L.PSIS			C7			R_Shoulder			L_Shoulder			R_Sternum			L_Sternum			R_humerus			R_elbow_med			R_elbow_lat			R_forearm			R_wrist_radius			R_wrist_ulna			L_humerus			L_elbow_med			L_elbow_lat			L_forearm			L_wrist_radius			L_wrist_ulna			R_HJC			L_HJC			R_HJC_reg			L_HJC_reg			
		X1	Y1	Z1	X2	Y2	Z2	X3	Y3	Z3	X4	Y4	Z4	X5	Y5	Z5	X6	Y6	Z6	X7	Y7	Z7	X8	Y8	Z8	X9	Y9	Z9	X10	Y10	Z10	X11	Y11	Z11	X12	Y12	Z12	X13	Y13	Z13	X14	Y14	Z14	X15	Y15	Z15	X16	Y16	Z16	X17	Y17	Z17	X18	Y18	Z18	X19	Y19	Z19	X20	Y20	Z20	X21	Y21	Z21	X22	Y22	Z22	X23	Y23	Z23	X24	Y24	Z24	X25	Y25	Z25	X26	Y26	Z26	X27	Y27	Z27	X28	Y28	Z28	X29	Y29	Z29	X30	Y30	Z30	X31	Y31	Z31	X32	Y32	Z32	X33	Y33	Z33	X34	Y34	Z34	X35	Y35	Z35	X36	Y36	Z36	X37	Y37	Z37	X38	Y38	Z38	X39	Y39	Z39	X40	Y40	Z40	X41	Y41	Z41	X42	Y42	Z42	X43	Y43	Z43	X44	Y44	Z44	X45	Y45	Z45	X46	Y46	Z46	X47	Y47	Z47	X48	Y48	Z48	X49	Y49	Z49	X50	Y50	Z50	X51	Y51	Z51	

88	0.87000000	-764.09820	923.98919	-424.65156	-754.08549	845.01677	-442.89372	-974.07101	576.52015	-440.48124	-1036.44777	609.54775	-475.21144	-952.31215	451.01100	-426.11836	-899.69440	437.57528	-480.40703	-701.68571	941.20736	-741.68785	-709.04954	846.08347	-742.30016	-918.38725	613.78360	-705.82002	-968.87390	645.47792	-643.39697	-914.50670	484.67575	-736.12116	-857.73074	468.13792	-696.02665	-823.13133	754.11458	-418.19446	-814.32543	889.82805	-409.42047	-881.36028	798.13317	-404.64560	-780.10625	900.47771	-740.68296	-844.02069	795.54656	-739.84322	-696.62258	1243.29977	-403.23085	-700.14415	1131.36169	-406.29279	-755.74346	1108.81917	-377.24791	-808.90818	1244.76826	-383.16601	-807.93888	1127.07142	-388.86722	-728.51407	1211.24144	-782.36806	-686.28902	1079.66610	-764.71052	-829.92479	1180.72006	-729.51764	-782.29934	1047.65490	-727.49119	-680.04980	1421.60443	-451.66997	-861.45235	1482.90534	-531.87672	-684.62599	1413.32255	-696.12883	-869.22240	1485.28975	-619.03739	-763.03065	1884.24519	-594.61198	-690.55034	1847.98560	-425.39814	-690.08993	1834.97926	-760.06161	-633.24791	1805.09639	-561.28736	-630.36750	1801.65427	-602.27082	-716.06426	1736.04389	-330.94511	-773.55498	1519.28849	-331.70163	-774.22056	1555.73323	-261.99237	-634.98368	1571.08031	-260.47174	-508.84591	1576.84200	-272.14502	-499.42172	1548.47068	-252.90583	-690.60195	1732.50293	-833.53977	-768.04010	1502.62389	-821.48977	-736.10519	1535.52372	-893.17279	-639.22103	1534.47886	-838.61561	-506.92030	1510.02146	-767.77516	-501.37442	1486.59602	-792.53273	-765.54338	1351.93068	-470.73575	-769.46324	1349.55031	-677.14577	-755.09110	1353.50402	-480.76445	-769.32978	1357.75033	-641.52588	
89	0.88000000	-743.32452	930.00780	-424.09948	-732.47449	852.19903	-442.82956	-949.83444	580.93139	-439.19639	-1013.51682	612.98162	-473.47663	-926.07384	455.93442	-424.97873	-873.63285	443.55307	-479.66896	-685.56192	950.13799	-742.83276	-690.28817	854.98428	-744.00903	-894.96205	617.39852	-707.43291	-945.03958	648.63921	-644.51078	-889.78059	488.29433	-737.82668	-832.28994	472.59664	-698.27915	-800.33466	760.31090	-417.80132	-793.97772	897.31970	-408.63381	-859.10798	804.19494	-404.14327	-762.98232	907.36333	-741.43428	-824.24217	801.04625	-741.10455	-687.09976	1250.88146	-404.00327	-686.47948	1138.92464	-406.40759	-740.60996	1114.55518	-376.00479	-799.12586	1248.21930	-383.08580	-793.63438	1130.68380	-387.05157	-717.81369	1219.43621	-783.12699	-672.75864	1088.83934	-765.49866	-819.11458	1186.38014	-731.50805	-768.32218	1054.64351	-729.00843	-673.96870	1427.56477	-452.16896	-854.95965	1488.56049	-530.79071	-678.23403	1418.71154	-697.02665	-862.84156	1491.62571	-619.70196	-747.41028	1891.23963	-595.43797	-675.28068	1852.11579	-425.70442	-675.17885	1838.41432	-760.63706	-618.66247	1809.30519	-559.58875	-617.44235	1804.31996	-602.54635	-703.86390	1739.91736	-331.64901	-767.17559	1525.38035	-333.15798	-768.46356	1562.08159	-263.11424	-628.64282	1572.16011	-259.18520	-502.10754	1573.08006	-268.38096	-494.29537	1544.08849	-249.33048	-678.17342	1735.03441	-834.00196	-761.84064	1507.91428	-820.57540	-729.81384	1539.67366	-892.88946	-632.18076	1536.16023	-838.84218	-500.22278	1508.01066	-768.29460	-495.46237	1484.31625	-793.63484	-759.19399	1357.74458	-470.99350	-763.50419	1355.37930	-677.40025	-748.64602	1358.08028	-481.83294	-762.88154	1363.49172	-642.83424	
90	0.89000000	-724.07625	935.88318	-423.31074	-711.90420	859.16418	-441.77087	-923.70213	583.49457	-437.49657	-988.99385	613.55611	-471.06698	-896.30117	459.28472	-423.44580	-844.21446	448.58419	-478.81432	-670.42877	958.38563	-744.14740	-672.60356	863.33551	-747.41049	-870.19672	619.17410	-709.48388	-920.04782	650.23696	-646.39158	-863.98896	489.98072	-739.48235	-805.99909	475.16725	-700.54720	-778.24421	766.19251	-416.59645	-774.99931	903.87099	-407.86990	-838.17165	809.43025	-403.59682	-746.65481	913.21625	-742.38722	-804.73251	805.30627	-742.60979	-678.42163	1257.68915	-403.93736	-674.12878	1145.80349	-406.12252	-727.07425	1119.79531	-374.95670	-790.25264	1251.17112	-382.67287	-780.66542	1134.04422	-385.78558	-707.44543	1226.87122	-784.03822	-659.96609	1097.15397	-766.30764	-808.42343	1192.03751	-733.29281	-755.16635	1061.34192	-730.39624	-667.82997	1432.37640	-452.37635	-847.52757	1491.55456	-524.30572	-671.69893	1422.78534	-697.90549	-856.42002	1496.37656	-620.23736	-731.69364	1897.23805	-596.03050	-660.00635	1854.49318	-426.09309	-659.83695	1840.87113	-761.19453	-605.06123	1810.75812	-562.39583	-604.73799	1805.92940	-603.13782	-691.65022	1743.61854	-331.99247	-761.14287	1531.03648	-333.92002	-762.37441	1568.05215	-263.66869	-622.16487	1572.80072	-257.87947	-495.73903	1569.10257	-265.53032	-489.35692	1539.60257	-246.59766	-665.39308	1736.99689	-834.48808	-755.05179	1512.64837	-820.20972	-722.85046	1543.33924	-893.04833	-624.71844	1537.11695	-839.17336	-493.45194	1505.19952	-769.04515	-489.88621	1481.43757	-795.06169	-751.47000	1361.58115	-470.17578	-757.56744	1359.87808	-676.54798	-740.98614	1359.69376	-483.05841	-755.93708	1367.77197	-644.35705	
91	0.90000000	-706.38150	941.61863	-422.33432	-692.44057	865.76337	-439.93244	-896.36236	584.27671	-435.48743	-963.12370	611.47003	-468.37599	-863.91643	461.27178	-421.43344	-811.85237	452.82495	-477.36593	-656.12007	965.67056	-745.57465	-655.92669	870.65266	-750.72578	-844.52965	619.34713	-712.02977	-894.58013	650.07676	-649.19623	-836.86377	489.95108	-741.20058	-778.41390	476.38409	-702.64163	-756.80754	771.50089	-414.71477	-756.66999	908.57103	-407.63751	-817.93063	813.24772	-402.73089	-731.30021	917.86437	-743.49897	-785.78632	807.96848	-744.23279	-670.39964	1264.09233	-402.91566	-662.77375	1152.11187	-405.37235	-715.00876	1124.64438	-374.48152	-781.95820	1254.14625	-382.17566	-768.91450	1137.36866	-385.64115	-697.66604	1233.48285	-785.08227	-648.05774	1104.57080	-767.24019	-798.24014	1197.13145	-735.09196	-742.78667	1067.35137	-731.92709	-661.68087	1436.16022	-452.07333	-841.00760	1493.85730	-521.39908	-665.12182	1426.31185	-698.66727	-850.01999	1499.62388	-620.52438	-715.86102	1901.95632	-596.40533	-644.81574	1855.53357	-426.65613	-644.18478	1842.54593	-762.13698	-592.33410	1810.35249	-567.91339	-591.85750	1806.84897	-603.97168	-679.45868	1747.03854	-332.25876	-755.92954	1536.54902	-333.55538	-756.07338	1573.63807	-263.68992	-615.69100	1573.13991	-256.66486	-489.64208	1565.01693	-263.49881	-484.51897	1535.24411	-244.52869	-652.31520	1738.49950	-835.20548	-747.80138	1516.76377	-820.39222	-715.28341	1546.62507	-893.69609	-616.94306	1537.46392	-839.85250	-486.80182	1501.79248	-770.01959	-484.26875	1478.11295	-796.23666	-744.33378	1364.60697	-469.88270	-751.04450	1363.33754	-676.24296	-734.09587	1361.37779	-483.75000	-748.83361	1370.87413	-645.71093	
92	0.91000000	-690.05570	947.11897	-421.28402	-673.86495	871.84990	-437.70450	-868.08927	583.41295	-433.49818	-936.14732	607.29499	-465.96351	-829.88445	462.09116	-418.89719	-777.38457	456.24937	-474.94683	-642.58768	971.92218	-747.06684	-639.91890	876.88352	-753.22819	-818.52790	618.21598	-715.01422	-869.29086	648.06169	-652.57631	-808.28505	488.56317	-743.15864	-749.24444	476.87260	-704.82267	-735.70465	775.93090	-412.48030	-739.02694	911.85874	-407.70974	-798.13385	815.93260	-401.51565	-717.15296	921.17962	-744.69689	-767.29201	809.09038	-745.88455	-662.82140	1270.07494	-401.47324	-651.98281	1157.90961	-404.29912	-704.05869	1129.08644	-374.53346	-773.82008	1257.23493	-382.04165	-757.99515	1140.78005	-386.28851	-688.54403	1239.21664	-786.24820	-637.09551	1111.04592	-768.31213	-788.68881	1201.34430	-736.59767	-731.26115	1072.42058	-733.53455	-655.43895	1438.81237	-451.41360	-835.45879	1495.78113	-522.58168	-658.58786	1429.31179	-699.37714	-843.68853	1501.70769	-620.63680	-699.97203	1905.14396	-596.75451	-629.59757	1856.01072	-427.26708	-628.61095	1843.29087	-763.13870	-579.12965	1810.09278	-571.46698	-578.37396	1807.31734	-604.68255	-667.21850	1749.40956	-333.18100	-750.78596	1541.80648	-332.47484	-749.57494	1578.85320	-263.12610	-609.29815	1573.38728	-255.52628	-483.63191	1560.86514	-262.16979	-479.68671	1531.19003	-242.87378	-639.05429	1739.45497	-835.84247	-740.23433	1520.29949	-821.22495	-707.21936	1549.40566	-894.72816	-608.91980	1537.35323	-840.88317	-480.17278	1498.06737	-770.79698	-478.08462	1474.59232	-797.06675	-738.00690	1366.93169	-470.32463	-744.11152	1365.90857	-676.70177	-728.04894	1363.13221	-484.05384	-741.71404	1372.97945	-646.97432	
